<?xml version="1.0" standalone="no"?>
<!DOCTYPE svg PUBLIC "-//W3C//DTD SVG 20010904//EN"
 "http://www.w3.org/TR/2001/REC-SVG-20010904/DTD/svg10.dtd">
<svg version="1.0" xmlns="http://www.w3.org/2000/svg"
 width="700.000000pt" height="700.000000pt" viewBox="0 0 700.000000 700.000000"
 preserveAspectRatio="xMidYMid meet">
<metadata>
Created by potrace 1.14, written by Peter Selinger 2001-2017
</metadata>
<g transform="translate(0.000000,700.000000) scale(0.100000,-0.100000)"
fill="#000000" stroke="none">
<path d="M452 6991 c-9 -5 -13 -68 -15 -217 l-2 -209 -218 0 -217 0 2 -330 3
-330 216 0 215 0 2 -2943 c0 -1619 4 -2947 7 -2951 9 -9 619 -11 633 -2 10 6
13 635 15 2942 1 1614 5 2939 9 2945 8 12 5222 13 5234 1 4 -4 8 -583 9 -1287
1 -704 4 -1283 8 -1286 3 -4 146 -7 317 -7 235 0 313 2 319 12 10 16 8 3217
-2 3227 -4 4 -1329 9 -2945 10 -1615 1 -2939 2 -2942 3 -3 0 -5 92 -5 204 1
111 0 207 -2 212 -4 12 -623 18 -641 6z"/>
<path d="M1530 5140 l0 -330 1163 0 c639 0 1476 0 1860 0 l698 0 -3 -2069 c-2
-1138 -6 -2072 -10 -2076 -4 -4 -836 -8 -1850 -10 -1014 -2 -1845 -3 -1848 -4
-3 -1 -7 -147 -8 -326 l-3 -325 2188 4 c1203 2 2188 4 2188 5 0 0 0 1229 0
2731 l1 2730 -2188 0 -2188 0 0 -330z"/>
<path d="M3661 4372 c-8 -3 -11 -93 -11 -328 l0 -324 229 0 c134 0 232 4 236
9 5 10 8 580 2 613 -2 10 -6 20 -9 24 -7 7 -427 13 -447 6z"/>
<path d="M4345 4371 c-3 -2 -5 -150 -5 -328 l0 -323 68 -1 c185 -2 388 3 395
10 8 8 13 629 4 637 -6 6 -456 12 -462 5z"/>
<path d="M1572 3282 l-43 -3 2 -320 c1 -217 5 -321 12 -326 6 -4 529 -8 1162
-9 632 -1 1216 -3 1298 -4 l147 -2 1 -136 c0 -76 1 -418 2 -762 l2 -625 328
-1 327 -1 0 1087 c0 858 -3 1089 -13 1093 -20 8 -3122 16 -3225 9z"/>
</g>
</svg>
